<svg height="65" viewBox="0 0 130 65" width="130" xmlns="http://www.w3.org/2000/svg"><g fill="none" fill-rule="evenodd"><path d="m118.407 17.172v-12.36l-24.756 10.981v-15.793l-25.04 11.108v25.003l24.757-10.981v7.234l24.735-10.973v4.391l11.897-5.277v-8.475l-11.593 5.141" fill="#ff5d18"/><path d="m21.232 57.774 4.037-13.463h4.523l-6.467 19.786h-4.037l-4.41-13.427-4.45 13.427h-4.035l-6.393-19.786h4.635l3.962 13.463 4.374-13.538h3.85l4.41 13.538m30.227 6.323h4.514v-27.986h-4.514zm7.222 0h4.514v-27.986h-4.513zm32.598 0h-4.611v-19.484h4.61v4.391c1.258-2.915 3.582-4.908 7.126-4.76v4.723h-.267c-4.039 0-6.858 2.546-6.858 7.713zm31.858-19.861c4.267 0 6.864 2.69 6.864 7.443v12.418h-4.489v-11.054c0-3.096-1.447-4.753-3.97-4.753-2.448 0-4.192 1.694-4.192 4.827v10.98h-4.489v-11.09c0-3.023-1.484-4.717-3.97-4.717s-4.193 1.842-4.193 4.864v10.943h-4.489v-19.455h4.49v2.947c1.261-1.732 2.968-3.353 5.973-3.353 2.82 0 4.786 1.363 5.825 3.426 1.595-2.063 3.672-3.426 6.64-3.426m-43.588 12.527c0 2.396-2.261 4.03-5.277 4.03-2.15 0-3.845-1.016-3.845-2.832v-.073c0-1.96 1.696-3.086 4.56-3.086 1.773 0 3.394.327 4.562.763zm-4.335-12.527c-2.44 0-4.26.371-5.944.957v4.013c1.663-.639 3.24-1.049 5.303-1.049 3.167 0 4.9 1.453 4.9 4.104v.471c-1.544-.471-3.09-.798-5.502-.798-4.636 0-8.067 2.033-8.067 6.173v.072c0 3.849 3.317 5.918 7.086 5.918 3.016 0 5.089-1.199 6.446-2.758v2.36h4.523v-11.367c0-5.119-2.865-8.097-8.745-8.097zm-31.776 12.527c0 2.396-2.261 4.03-5.277 4.03-2.149 0-3.845-1.016-3.845-2.832v-.073c0-1.96 1.696-3.086 4.561-3.086 1.772 0 3.393.327 4.561.763zm-4.335-12.527c-2.578 0-4.462.418-6.227 1.062v4.017c1.768-.701 3.406-1.158 5.586-1.158 3.167 0 4.9 1.453 4.9 4.104v.471c-1.544-.471-3.09-.798-5.502-.798-4.637 0-8.067 2.033-8.067 6.173v.072c0 3.849 3.317 5.918 7.086 5.918 3.016 0 5.089-1.199 6.446-2.758v2.36h4.523v-11.367c0-5.119-2.865-8.097-8.745-8.097z" fill="#fff"/></g></svg>